<?xml version="1.0" encoding="utf-8"?>
<!-- Generator: Adobe Illustrator 26.0.3, SVG Export Plug-In . SVG Version: 6.00 Build 0)  -->
<svg version="1.1" id="_x32_" xmlns="http://www.w3.org/2000/svg" xmlns:xlink="http://www.w3.org/1999/xlink" x="0px" y="0px"
	 viewBox="0 0 512 512" style="enable-background:new 0 0 512 512;" xml:space="preserve">
<style type="text/css">
	.st0{fill:#4B4B4B;}
</style>
<g>
	<path class="st0" d="M485.1,504.2H26.9c-7.3,0-14.4-3-19.4-8.3c-5.1-5.3-7.7-12.5-7.4-19.8c0.9-18.1,3.6-36,8.3-53.3
		c11.9-44.7,37.5-84.2,73.9-114.3c18.3-15.2,39.1-27.8,61.7-37.5c-6.7-6.5-12.8-13.7-18.3-21.4C107,223.6,97.3,193,97.3,161
		C97.3,76.5,166,7.8,250.5,7.8C335,7.8,403.8,76.5,403.8,161c0,31.2-9.3,61.2-26.9,86.8c-4.9,7.2-10.4,13.9-16.4,20
		c24.1,9.5,46.4,22.3,66.1,38c38.2,30.5,64.8,70.9,77.1,117c4.6,17.2,7.4,35.1,8.3,53.2c0.4,7.3-2.3,14.5-7.4,19.8
		C499.5,501.2,492.5,504.2,485.1,504.2z M57,450.5h398c-0.9-4.7-1.9-9.3-3.2-13.8c-9.3-34.9-29.6-65.6-58.8-88.9
		c-27.6-22-62.1-36.9-99.7-43c-11.9-1.9-21.1-11.6-22.4-23.5c-1.3-12,5.5-23.4,16.7-27.9c37.9-15.2,62.4-51.5,62.4-92.4
		c0-54.9-44.7-99.5-99.6-99.5c-54.9,0-99.5,44.7-99.5,99.5c0,41.5,26.2,79.1,65.1,93.4c11.3,4.2,18.5,15.4,17.5,27.4
		c-1,12-9.8,21.9-21.7,24.2c-36.2,7-69.2,22.2-95.5,43.9c-28.1,23.3-47,52.5-56.2,86.8C59,441.3,57.9,445.9,57,450.5z"/>
</g>
</svg>
