<?xml version="1.0" encoding="utf-8"?>
<!-- Generator: Adobe Illustrator 26.0.3, SVG Export Plug-In . SVG Version: 6.00 Build 0)  -->
<svg version="1.1" id="_x32_" xmlns="http://www.w3.org/2000/svg" xmlns:xlink="http://www.w3.org/1999/xlink" x="0px" y="0px"
	 viewBox="0 0 512 512" style="enable-background:new 0 0 512 512;" xml:space="preserve">
<style type="text/css">
	.st0{fill:#4B4B4B;}
</style>
<g>
	<path class="st0" d="M62.2,62.2C103.6,20.8,158.1,0,212.4,0c54.2,0,108.8,20.8,150.2,62.2c41.4,41.4,62.2,96,62.2,150.1
		c0,37.9-10.4,75.8-30.5,109.4L497,424.5c20,20,20,52.5,0,72.5c-20,20-52.5,20-72.5,0L321.7,394.1c-33.6,20.2-71.5,30.6-109.3,30.5
		c-54.2,0-108.8-20.8-150.2-62.2C20.8,321.1,0,266.6,0,212.3C-0.1,158.1,20.8,103.6,62.2,62.2z M120.2,304.5
		c25.5,25.5,58.7,38.1,92.2,38.2c33.5-0.1,66.6-12.7,92.2-38.2c25.5-25.6,38.1-58.7,38.2-92.2c-0.1-33.5-12.7-66.6-38.2-92.2
		C279,94.6,245.9,82,212.4,82c-33.5,0.1-66.6,12.7-92.2,38.2C94.6,145.7,82,178.9,82,212.3C82,245.9,94.6,279,120.2,304.5z"/>
</g>
</svg>
