<?xml version="1.0" encoding="utf-8"?>
<!-- Generator: Adobe Illustrator 26.0.3, SVG Export Plug-In . SVG Version: 6.00 Build 0)  -->
<svg version="1.1" id="_x32_" xmlns="http://www.w3.org/2000/svg" xmlns:xlink="http://www.w3.org/1999/xlink" x="0px" y="0px"
	 viewBox="0 0 512 512" style="enable-background:new 0 0 512 512;" xml:space="preserve">
<style type="text/css">
	.st0{fill:#4B4B4B;}
</style>
<g>
	<path class="st0" d="M256,480.1c-7.9,0-15.8-3-21.8-9L42.5,279.4C15.1,252,0,215.6,0,176.8c0-38.7,15.1-75.1,42.5-102.5
		C69.8,46.9,106.2,31.9,145,31.9c38.7,0,75.1,15.1,102.5,42.5c3,3,5.8,6.1,8.5,9.3c2.7-3.2,5.5-6.3,8.5-9.3
		c27.4-27.4,63.8-42.5,102.5-42.5c38.7,0,75.1,15.1,102.5,42.5c27.4,27.4,42.5,63.8,42.5,102.5c0,38.7-15.1,75.1-42.5,102.5
		L277.8,471.1C271.7,477.1,263.9,480.1,256,480.1z M145,93.4c-22.3,0-43.2,8.7-59,24.4c-15.8,15.8-24.4,36.7-24.4,59
		c0,22.3,8.7,43.2,24.4,59l170,170l170-170c15.8-15.7,24.4-36.7,24.4-59c0-22.3-8.7-43.2-24.4-59c0,0,0,0,0,0
		c-15.8-15.8-36.7-24.4-59-24.4c-22.3,0-43.2,8.7-59,24.4c-10.9,10.9-18.5,24.5-22.1,39.4c-3.3,13.8-15.7,23.6-29.9,23.6
		c0,0,0,0,0,0c-14.2,0-26.6-9.8-29.9-23.6c-3.6-14.9-11.2-28.5-22.1-39.4C188.2,102.1,167.3,93.4,145,93.4z"/>
</g>
</svg>
