<svg xmlns="http://www.w3.org/2000/svg" width="16" height="16" viewBox="0 0 16 16">
  <g id="グループ_1" data-name="グループ 1" transform="translate(-620 -66)">
    <rect id="長方形_47" data-name="長方形 47" width="16" height="16" transform="translate(620 66)" fill="none"/>
    <g id="shop_schedule" transform="translate(612.927 68)">
      <path id="パス_14" data-name="パス 14" d="M120.9,2.436a.682.682,0,0,0,.681-.682V.681a.682.682,0,0,0-1.363,0V1.754A.682.682,0,0,0,120.9,2.436Z" transform="translate(-110.411)" fill="#4b4b4b"/>
      <path id="パス_15" data-name="パス 15" d="M334.524,2.436a.682.682,0,0,0,.681-.682V.681a.682.682,0,0,0-1.363,0V1.754A.682.682,0,0,0,334.524,2.436Z" transform="translate(-318.868)" fill="#4b4b4b"/>
      <path id="パス_16" data-name="パス 16" d="M17.391,41.287h-.432v.8a1.312,1.312,0,1,1-2.624,0v-.8H11.81v.8a1.312,1.312,0,1,1-2.624,0v-.8H8.755a1.683,1.683,0,0,0-1.682,1.685v8a1.683,1.683,0,0,0,1.682,1.685h8.637a1.683,1.683,0,0,0,1.682-1.685v-8A1.683,1.683,0,0,0,17.391,41.287Zm.358,9.389a.781.781,0,0,1-.779.781H9.176a.781.781,0,0,1-.779-.781V44.417H17.75Z" transform="translate(0 -40.316)" fill="#4b4b4b"/>
    </g>
  </g>
</svg>
